<svg xmlns="http://www.w3.org/2000/svg" xmlns:xlink="http://www.w3.org/1999/xlink" width="48" zoomAndPan="magnify" viewBox="0 0 36 36.000001" height="48" preserveAspectRatio="xMidYMid meet" version="1.0"><defs><clipPath id="077f3373c7"><path d="M 1.289062 0.800781 L 34.710938 0.800781 L 34.710938 34.226562 L 1.289062 34.226562 Z M 1.289062 0.800781 " clip-rule="nonzero"/></clipPath><clipPath id="4d49deae34"><path d="M 18 0.800781 C 8.769531 0.800781 1.289062 8.285156 1.289062 17.511719 C 1.289062 26.742188 8.769531 34.226562 18 34.226562 C 27.230469 34.226562 34.710938 26.742188 34.710938 17.511719 C 34.710938 8.285156 27.230469 0.800781 18 0.800781 Z M 18 0.800781 " clip-rule="nonzero"/></clipPath><clipPath id="4bea9e3eea"><path d="M 4.902344 3.503906 L 31 3.503906 L 31 29.773438 L 4.902344 29.773438 Z M 4.902344 3.503906 " clip-rule="nonzero"/></clipPath><clipPath id="a472097ee2"><path d="M 4.902344 18 L 28 18 L 28 29.773438 L 4.902344 29.773438 Z M 4.902344 18 " clip-rule="nonzero"/></clipPath></defs><g clip-path="url(#077f3373c7)"><g clip-path="url(#4d49deae34)"><path fill="#484f69" d="M 1.289062 0.800781 L 34.710938 0.800781 L 34.710938 34.226562 L 1.289062 34.226562 Z M 1.289062 0.800781 " fill-opacity="1" fill-rule="nonzero"/></g></g><g clip-path="url(#4bea9e3eea)"><path fill="#ff004f" d="M 30.636719 19.875 L 30.519531 20.445312 C 30.066406 22.625 29.304688 24.726562 28.257812 26.691406 L 27.96875 27.234375 L 26.800781 28.957031 L 25.625 27.058594 C 21.160156 29.699219 17.246094 30.121094 11.628906 28.359375 C 10.886719 28.238281 10.152344 28.082031 9.425781 27.890625 C 8.699219 27.699219 7.984375 27.472656 7.277344 27.214844 L 5.75 26.652344 C 5.285156 26.480469 4.992188 26.015625 5.042969 25.523438 L 5.203125 23.898438 C 4.921875 21.8125 4.902344 20.328125 5.046875 19.136719 C 5.207031 17.84375 5.558594 16.898438 5.984375 15.914062 C 6.46875 14.792969 7.035156 13.898438 8.429688 10.988281 C 9.347656 9.070312 10.050781 7.480469 10.503906 6.433594 L 10.832031 5.445312 C 10.988281 4.976562 11.355469 4.609375 11.824219 4.449219 L 13.800781 3.777344 C 14.382812 3.578125 14.996094 3.507812 15.609375 3.570312 L 19.84375 3.988281 C 20.054688 4.007812 20.238281 4.144531 20.320312 4.339844 L 21.648438 7.796875 L 20.792969 9.132812 L 20.285156 9.21875 L 19.613281 9.332031 L 18.894531 9.660156 L 18.542969 9.605469 L 17.992188 9.515625 L 17.15625 9.714844 L 17.03125 9.679688 L 16.371094 9.515625 L 15.464844 9.695312 L 14.8125 9.332031 L 14.433594 8.46875 L 13.605469 8.726562 C 12.53125 11.039062 13.347656 16.652344 13.347656 16.652344 C 13.671875 17.78125 14.015625 18.667969 13.679688 19.683594 C 13.566406 20.03125 13.414062 20.386719 13.402344 20.421875 C 13.429688 20.371094 13.902344 19.519531 14.675781 18.742188 C 14.761719 18.65625 15.496094 17.925781 16.355469 17.570312 C 18.183594 16.8125 20.6875 17.695312 21.210938 17.976562 C 21.238281 17.988281 21.257812 18 21.273438 18.011719 C 21.363281 17.917969 21.472656 17.804688 21.597656 17.683594 C 21.726562 17.5625 21.875 17.433594 22.039062 17.296875 C 23.632812 15.988281 24.75 15.835938 25.378906 15.710938 C 25.917969 15.601562 26.539062 15.546875 27.191406 15.558594 C 29.4375 15.59375 31.09375 17.675781 30.636719 19.875 Z M 30.636719 19.875 " fill-opacity="1" fill-rule="nonzero"/></g><path fill="#000000" d="M 17.03125 9.679688 L 16.371094 9.515625 L 16.527344 8.574219 L 16.15625 6.875 C 16.15625 6.875 17.015625 8.4375 17.027344 8.539062 C 17.03125 8.59375 17.03125 9.152344 17.03125 9.679688 Z M 17.03125 9.679688 " fill-opacity="1" fill-rule="nonzero"/><path fill="#000000" d="M 18.804688 8.539062 C 18.804688 8.539062 18.640625 9.203125 18.542969 9.605469 L 17.992188 9.515625 L 18.335938 8.609375 L 17.703125 6.078125 Z M 18.804688 8.539062 " fill-opacity="1" fill-rule="nonzero"/><path fill="#000000" d="M 20.492188 7.988281 L 20.285156 9.21875 L 19.613281 9.332031 L 19.957031 7.847656 L 19.277344 5.492188 C 19.320312 5.605469 20.492188 7.988281 20.492188 7.988281 Z M 20.492188 7.988281 " fill-opacity="1" fill-rule="nonzero"/><path fill="#000000" d="M 16.203125 25.140625 C 14.417969 25.113281 12.914062 22.777344 10.605469 22.617188 C 10.605469 22.617188 12.132812 21.929688 12.507812 19.074219 C 12.761719 17.140625 12.464844 13.527344 12.109375 10.816406 C 11.851562 8.84375 11.589844 7.351562 11.589844 7.351562 C 12.003906 7.996094 12.636719 8.460938 13.375 8.664062 L 13.605469 8.726562 C 12.53125 11.039062 13.347656 16.652344 13.347656 16.652344 C 13.671875 17.78125 14.015625 18.667969 13.679688 19.683594 C 13.558594 20.050781 13.398438 20.425781 13.398438 20.425781 C 13.375 20.460938 13.34375 20.515625 13.308594 20.589844 C 12.890625 21.515625 13.703125 22.824219 14.214844 23.355469 C 15.914062 25.125 19.710938 24.203125 19.710938 24.203125 C 19.710938 24.203125 18.167969 25.167969 16.203125 25.140625 Z M 16.203125 25.140625 " fill-opacity="1" fill-rule="nonzero"/><g clip-path="url(#a472097ee2)"><path fill="#000000" d="M 27.96875 27.234375 L 26.800781 28.957031 L 25.625 27.058594 C 21.160156 29.699219 17.246094 30.121094 11.628906 28.359375 C 10.886719 28.238281 10.152344 28.082031 9.425781 27.890625 C 8.699219 27.699219 7.984375 27.472656 7.277344 27.214844 L 5.75 26.652344 C 5.285156 26.480469 4.992188 26.015625 5.042969 25.523438 L 5.203125 23.898438 C 4.921875 21.8125 4.902344 20.328125 5.046875 19.136719 C 5.082031 19.632812 5.179688 20.164062 5.371094 20.703125 C 5.824219 21.957031 6.671875 22.902344 6.289062 24.035156 C 6.152344 24.4375 5.875 24.8125 6.019531 25.292969 C 6.121094 25.640625 6.410156 25.921875 6.902344 26.175781 C 8.054688 26.773438 9.21875 26.660156 9.855469 26.652344 C 11.792969 26.625 12.375 27.511719 14.34375 28.078125 C 14.886719 28.234375 17.636719 28.808594 20.730469 27.875 C 21.90625 27.519531 23.164062 27.074219 23.957031 25.871094 C 25.425781 23.644531 22.445312 23.304688 22.445312 23.304688 C 24.757812 21.253906 21.734375 18.382812 21.691406 18.351562 C 21.734375 18.363281 23.570312 18.894531 24.671875 21.078125 C 25.425781 22.570312 25.015625 23.230469 25.964844 24.816406 C 26.621094 25.917969 27 25.898438 27.96875 27.234375 Z M 27.96875 27.234375 " fill-opacity="1" fill-rule="nonzero"/></g><path fill="#000000" d="M 14.433594 8.46875 L 13.605469 8.726562 L 14.003906 7.191406 L 14.414062 8.414062 Z M 14.433594 8.46875 " fill-opacity="1" fill-rule="nonzero"/></svg>